<?xml version="1.0" standalone="no"?>
<!DOCTYPE svg PUBLIC "-//W3C//DTD SVG 20010904//EN"
 "http://www.w3.org/TR/2001/REC-SVG-20010904/DTD/svg10.dtd">
<svg version="1.0" xmlns="http://www.w3.org/2000/svg"
 width="200.000000pt" height="200.000000pt" viewBox="0 0 200.000000 200.000000"
 preserveAspectRatio="xMidYMid meet">
<metadata>
Created by potrace 1.14, written by Peter Selinger 2001-2017
</metadata>
<g transform="translate(0.000000,200.000000) scale(0.100000,-0.100000)"
fill="#000000" stroke="none">
<path d="M917 1862 c-9 -2 -18 -8 -18 -13 -1 -5 -2 -15 -3 -21 -1 -7 15 -33
35 -58 38 -46 67 -124 65 -172 -1 -16 1 -29 4 -29 3 -1 65 -2 138 -3 l132 -2
1 26 c2 69 27 135 70 183 34 39 38 49 29 67 -6 11 -16 21 -23 21 -27 3 -414 4
-430 1z"/>
<path d="M1000 1511 c0 -16 -7 -34 -15 -41 -8 -7 -15 -10 -15 -6 0 9 -109 -48
-150 -78 -47 -36 -117 -122 -142 -176 -11 -25 -25 -53 -30 -62 -18 -35 2 -17
48 45 27 34 69 83 94 108 43 41 126 98 154 104 6 1 23 7 37 13 55 22 173 32
245 20 43 -8 142 -56 189 -92 77 -59 138 -138 179 -230 14 -31 23 -56 20 -56
-3 0 0 -9 5 -19 22 -39 29 -152 18 -254 -32 -287 -256 -499 -517 -491 -65 2
-109 7 -117 14 -2 2 -6 3 -10 4 -42 10 -53 18 -43 31 9 10 18 11 37 4 101 -38
228 -29 339 25 124 62 217 176 254 315 42 158 19 358 -43 375 -62 16 -165 -21
-237 -85 -19 -17 -48 -39 -63 -49 -28 -17 -30 -17 -95 7 -142 52 -261 73 -357
63 -27 -3 -72 0 -98 7 -73 18 -134 5 -190 -40 -46 -36 -76 -96 -77 -150 0 -27
-5 -39 -17 -43 -53 -17 -75 -29 -99 -52 -32 -33 -27 -73 16 -117 24 -25 28
-37 25 -72 -4 -59 25 -114 78 -144 37 -21 54 -24 143 -23 l101 1 -23 -42 c-28
-49 -42 -175 -20 -175 14 0 140 74 170 99 10 9 25 31 33 49 l13 32 54 -29 c29
-15 67 -32 82 -36 16 -5 36 -10 44 -12 8 -2 52 -6 97 -8 98 -4 198 19 283 68
74 41 178 149 215 223 17 32 35 62 40 66 6 4 8 8 4 8 -3 0 5 39 17 88 29 116
27 275 -6 372 -59 174 -172 304 -327 377 -67 31 -73 36 -73 63 l0 30 -135 0
-135 0 0 -29z"/>
</g>
</svg>
